<svg xmlns="http://www.w3.org/2000/svg" xmlns:xlink="http://www.w3.org/1999/xlink" width="500" zoomAndPan="magnify" viewBox="0 0 375 374.999991" height="500" preserveAspectRatio="xMidYMid meet" version="1.0"><defs><g/><clipPath id="ca98005ea4"><path d="M 92.113281 90.816406 L 279.613281 90.816406 L 279.613281 278 L 92.113281 278 Z M 92.113281 90.816406 " clip-rule="nonzero"/></clipPath></defs><g clip-path="url(#ca98005ea4)"><path fill="#fffef9" d="M 185.699219 277.988281 C 133.996094 277.988281 92.113281 235.816406 92.113281 184.402344 C 92.113281 132.988281 133.996094 90.816406 185.699219 90.816406 C 237.402344 90.816406 279.285156 132.699219 279.285156 184.402344 C 279.285156 236.105469 237.113281 277.988281 185.699219 277.988281 Z M 185.699219 96.59375 C 137.175781 96.59375 97.890625 135.875 97.890625 184.402344 C 97.890625 232.929688 137.175781 272.210938 185.699219 272.210938 C 234.226562 272.210938 273.507812 232.929688 273.507812 184.402344 C 273.507812 135.875 233.9375 96.59375 185.699219 96.59375 Z M 185.699219 96.59375 " fill-opacity="1" fill-rule="nonzero"/></g><path stroke-linecap="butt" transform="matrix(1.465975, 0, 0, 1.465975, 69.32406, 91.156364)" fill="none" stroke-linejoin="miter" d="M 1.057958 72.306736 C 1.057958 82.600119 3.749212 101.390937 17.47461 101.390937 C 27.608116 101.390937 39.377692 88.824644 44.046086 82.600119 C 45.663503 80.404481 47.059758 78.27013 48.615889 75.997219 L 60.782491 53.753068 C 60.782491 53.196165 60.305526 52.538006 59.56743 52.538006 C 58.829333 52.538006 57.851422 53.116226 56.873511 54.992111 C 50.910117 66.340678 44.845468 78.430006 35.948341 87.508327 C 34.890491 88.563512 34.072456 89.064459 33.014607 90.039705 L 30.222097 92.49381 C 26.949958 95.027852 22.222943 98.041524 17.554549 98.041524 C 12.329252 98.041524 9.155703 94.049941 7.759448 89.461485 C 3.589336 78.531262 5.726352 63.8093 7.999263 52.935033 C 10.693182 39.79052 17.234796 20.418816 26.630205 11.023407 C 29.404062 8.252214 32.516325 6.776021 35.210244 6.776021 C 38.559657 6.776021 41.173638 9.227461 41.173638 14.793828 C 41.173638 23.611017 37.82156 31.370357 34.552086 38.892547 C 34.152395 39.950396 33.654113 40.928307 33.254422 42.084747 C 32.436387 43.640879 32.27651 44.117844 33.654113 45.095755 C 35.290182 44.776002 35.370121 44.117844 35.948341 42.822844 C 39.217815 36.198627 44.365839 24.269176 44.365839 17.069404 C 44.365839 12.899291 44.605653 10.045496 42.071611 6.456268 C 40.195726 3.922226 37.741622 2.864376 35.130306 2.864376 C 31.618352 2.864376 27.767993 4.74026 24.756985 7.114426 C 18.132769 12.339724 12.98741 22.473229 9.875147 30.315172 C 5.46522 41.506527 1.057958 56.86533 1.057958 72.306736 Z M 57.515681 58.741215 C 57.515681 61.693601 57.755496 63.071203 60.785156 63.071203 C 63.159322 63.071203 65.693365 55.389137 67.230844 54.331288 C 67.230844 57.843242 69.84216 62.093292 73.932334 62.093292 C 75.328589 62.093292 76.88472 61.613663 78.520789 60.457223 L 80.974894 58.5014 C 85.123689 54.491164 84.64406 52.458068 83.407681 52.458068 C 82.930716 52.458068 82.349832 52.697883 81.952805 53.276103 C 80.796365 54.491164 80.55655 55.229261 79.000419 56.625516 C 77.204473 58.421462 75.488465 59.399373 73.932334 59.399373 C 72.216326 59.399373 70.76145 58.101709 70.103291 55.149323 C 69.365195 52.039725 70.76145 48.367894 67.889002 48.367894 C 66.831152 48.367894 63.479075 55.309199 61.843005 57.843242 L 61.184847 58.821153 C 60.785156 59.319435 61.024971 58.999682 60.785156 59.239497 C 60.785156 56.545577 61.922944 53.435979 62.980793 51.719972 C 65.354959 47.629798 66.991029 46.49201 68.227407 46.49201 C 69.762222 46.49201 70.76145 48.367894 71.899238 48.367894 C 74.012272 48.367894 71.899238 43.720817 68.048878 43.720817 C 62.341287 43.720817 57.515681 54.094138 57.515681 58.741215 Z M 82.187291 80.48442 C 82.187291 77.214945 84.561457 73.543115 86.514615 71.168948 C 87.492526 70.031161 89.467001 67.579721 90.764665 66.841624 C 90.764665 69.114535 90.844603 70.929134 90.285036 72.805018 C 89.546939 75.498937 87.750993 79.429235 85.536703 81.06264 C 84.958483 81.542269 83.980572 82.200427 83.242476 82.200427 C 82.685572 82.200427 82.187291 81.702146 82.187291 80.48442 Z M 81.449194 53.753068 C 81.449194 58.101709 87.172773 59.479311 89.706816 64.147705 C 88.48909 66.103528 79.57331 73.124771 79.57331 80.48442 C 79.57331 83.418153 81.209379 84.974285 83.503607 84.974285 C 85.957712 84.974285 89.048657 83.0984 91.422823 79.088165 C 96.887935 69.772694 93.535858 65.045678 93.876928 63.889238 C 94.036804 63.249732 99.840322 58.901091 100.738295 58.421462 L 106.283345 54.571103 C 108.180546 53.515918 108.337758 52.138315 107.021441 52.138315 C 106.283345 52.138315 105.22816 52.458068 103.850557 53.435979 L 96.251094 58.741215 C 95.012051 59.817717 93.876928 60.71569 92.560611 61.613663 C 88.310561 55.229261 82.187291 55.469076 86.514615 50.582184 C 87.750993 49.185929 87.492526 49.604272 89.467001 49.105991 C 89.94663 47.07023 89.208534 46.252195 88.070746 46.252195 C 85.69658 46.252195 81.449194 49.604272 81.449194 53.753068 Z M 108.572243 52.218253 C 109.150463 50.16384 111.841718 46.971639 114.056007 46.571948 C 113.818857 49.185929 110.626656 51.141752 108.572243 52.218253 Z M 104.900413 54.174076 C 104.900413 56.468304 104.820475 58.5014 106.776297 60.457223 C 108.172552 61.853477 109.808622 62.431697 111.524629 62.431697 C 116.510112 62.431697 122.137765 57.44355 125.167425 54.411226 C 125.905521 53.515918 125.905521 53.435979 125.647054 52.218253 C 123.214267 52.218253 124.509266 52.538006 121.159854 55.149323 C 120.600286 55.570331 120.341819 55.887419 119.68366 56.388366 C 118.066243 57.603427 114.636892 59.977593 111.764444 59.977593 C 110.786533 59.977593 109.808622 59.639188 109.070525 58.901091 C 107.67427 57.523489 107.852799 56.207172 107.852799 54.491164 C 110.386842 54.331288 113.317911 51.959786 114.636892 50.502245 C 117.149618 47.310045 117.149618 44.037905 113.557726 44.037905 C 109.648745 44.037905 104.900413 50.083902 104.900413 54.174076 Z M 124.924945 99.754868 C 123.608629 99.754868 122.310964 99.277903 121.652806 98.459868 C 118.380667 94.947914 121.652806 88.326362 123.608629 85.552505 C 125.663042 82.440242 127.618864 79.906199 130.230181 77.292219 C 130.888339 76.713999 131.208092 76.077157 131.706374 75.658814 L 139.705528 68.554968 C 140.363686 68.056686 140.864633 67.736933 141.501474 67.318589 C 141.101783 72.386675 137.331362 86.850169 134.879922 91.358687 C 132.9241 94.867976 129.572022 99.754868 124.924945 99.754868 Z M 126.80083 59.817717 C 126.80083 51.959786 131.626435 46.49201 128.015891 46.49201 C 125.324637 46.49201 123.368814 54.672358 123.368814 58.181647 C 123.368814 61.035443 124.666478 62.831389 126.481077 62.831389 C 127.37905 62.831389 128.356961 62.351759 129.332208 61.435134 C 131.546497 59.399373 134.08054 55.229261 135.697957 52.617945 C 137.014274 50.74206 143.137544 40.030334 143.87564 39.550705 C 143.87564 48.946114 143.137544 54.491164 142.159633 62.831389 C 142.079694 64.307582 141.341598 64.307582 139.865405 65.602581 C 139.228563 66.103528 138.887493 66.26074 138.33059 66.761686 C 131.208092 71.827107 117.98364 85.392628 117.98364 94.369694 C 117.98364 99.277903 121.074586 102.129034 125.084822 102.129034 C 130.469995 102.129034 135.138389 97.242142 137.512555 92.733624 C 141.501474 86.210663 144.195393 73.782929 145.351833 65.68252 C 145.51171 64.547397 145.351833 64.38752 146.169868 63.8093 C 149.340752 61.613663 152.69283 59.479311 156.044907 57.603427 C 157.041471 57.025207 162.269432 54.331288 162.269432 53.116226 C 162.269432 52.458068 161.928362 52.218253 161.531336 52.218253 C 160.292293 52.218253 158.09932 53.934261 157.601038 54.254014 L 145.911401 61.035443 C 145.911401 58.741215 146.649498 53.435979 146.649498 49.345805 L 146.649498 43.062659 C 146.649498 41.426589 146.729436 35.380593 145.013428 35.380593 C 143.29742 35.380593 143.29742 35.958813 141.999756 38.074512 C 139.127308 42.902782 130.968277 57.683365 126.80083 59.817717 Z M 126.80083 59.817717 " stroke="#122620" stroke-width="6.128468" stroke-opacity="1" stroke-miterlimit="4"/><g fill="#fffef9" fill-opacity="1"><g transform="translate(72.072764, 189.376706)"><g><path d="M -1.203125 7.78125 C -1.203125 22.875 2.75 50.421875 22.875 50.421875 C 37.734375 50.421875 54.984375 31.984375 61.8125 22.875 C 64.203125 19.640625 66.234375 16.53125 68.515625 13.171875 L 86.359375 -19.40625 C 86.359375 -20.25 85.640625 -21.203125 84.5625 -21.203125 C 83.484375 -21.203125 82.046875 -20.359375 80.609375 -17.609375 C 71.875 -0.953125 63 16.765625 49.953125 30.0625 C 48.390625 31.625 47.1875 32.34375 45.640625 33.78125 L 41.5625 37.375 C 36.765625 41.078125 29.828125 45.515625 23 45.515625 C 15.328125 45.515625 10.65625 39.640625 8.625 32.9375 C 2.515625 16.890625 5.625 -4.671875 8.984375 -20.609375 C 12.9375 -39.890625 22.515625 -68.28125 36.296875 -82.046875 C 40.359375 -86.125 44.921875 -88.28125 48.875 -88.28125 C 53.78125 -88.28125 57.609375 -84.6875 57.609375 -76.546875 C 57.609375 -63.609375 52.703125 -52.21875 47.90625 -41.203125 C 47.3125 -39.640625 46.59375 -38.203125 46 -36.53125 C 44.796875 -34.25 44.5625 -33.53125 46.59375 -32.09375 C 48.984375 -32.578125 49.109375 -33.53125 49.953125 -35.453125 C 54.734375 -45.15625 62.28125 -62.640625 62.28125 -73.1875 C 62.28125 -79.296875 62.640625 -83.484375 58.9375 -88.765625 C 56.171875 -92.46875 52.578125 -94.03125 48.75 -94.03125 C 43.59375 -94.03125 37.96875 -91.265625 33.53125 -87.796875 C 23.84375 -80.140625 16.296875 -65.28125 11.734375 -53.78125 C 5.265625 -37.375 -1.203125 -14.859375 -1.203125 7.78125 Z M -1.203125 7.78125 "/></g></g></g><g fill="#fffef9" fill-opacity="1"><g transform="translate(153.639446, 189.376706)"><g><path d="M 0 -12.09375 C 0 -7.78125 0.359375 -5.75 4.796875 -5.75 C 8.265625 -5.75 11.984375 -17.015625 14.25 -18.5625 C 14.25 -13.421875 18.09375 -7.1875 24.078125 -7.1875 C 26.109375 -7.1875 28.390625 -7.90625 30.78125 -9.578125 L 34.375 -12.453125 C 40.484375 -18.328125 39.765625 -21.328125 37.96875 -21.328125 C 37.25 -21.328125 36.40625 -20.96875 35.8125 -20.125 C 34.140625 -18.328125 33.78125 -17.25 31.5 -15.21875 C 28.875 -12.578125 26.359375 -11.140625 24.078125 -11.140625 C 21.5625 -11.140625 19.40625 -13.0625 18.453125 -17.375 C 17.375 -21.921875 19.40625 -27.3125 15.21875 -27.3125 C 13.65625 -27.3125 8.75 -17.125 6.34375 -13.421875 L 5.390625 -11.984375 C 4.796875 -11.265625 5.15625 -11.734375 4.796875 -11.375 C 4.796875 -15.328125 6.46875 -19.890625 8.03125 -22.40625 C 11.5 -28.390625 13.890625 -30.0625 15.6875 -30.0625 C 17.96875 -30.0625 19.40625 -27.3125 21.078125 -27.3125 C 24.203125 -27.3125 21.078125 -34.140625 15.453125 -34.140625 C 7.0625 -34.140625 0 -18.921875 0 -12.09375 Z M 0 -12.09375 "/></g></g></g><g fill="#fffef9" fill-opacity="1"><g transform="translate(188.374152, 189.376706)"><g><path d="M 1.4375 19.765625 C 1.4375 14.96875 4.90625 9.578125 7.78125 6.109375 C 9.21875 4.4375 12.09375 0.84375 14.015625 -0.234375 C 14.015625 3.109375 14.140625 5.75 13.296875 8.5 C 12.21875 12.453125 9.578125 18.203125 6.34375 20.609375 C 5.515625 21.328125 4.078125 22.28125 3 22.28125 C 2.15625 22.28125 1.4375 21.5625 1.4375 19.765625 Z M 0.359375 -19.40625 C 0.359375 -13.0625 8.75 -11.015625 12.453125 -4.1875 C 10.65625 -1.3125 -2.390625 8.984375 -2.390625 19.765625 C -2.390625 24.078125 0 26.359375 3.359375 26.359375 C 6.953125 26.359375 11.5 23.59375 14.96875 17.734375 C 23 4.078125 18.09375 -2.875 18.5625 -4.546875 C 18.8125 -5.515625 27.3125 -11.859375 28.625 -12.578125 L 36.765625 -18.203125 C 39.53125 -19.765625 39.765625 -21.796875 37.84375 -21.796875 C 36.765625 -21.796875 35.21875 -21.328125 33.171875 -19.890625 L 22.046875 -12.09375 C 20.25 -10.546875 18.5625 -9.21875 16.65625 -7.90625 C 10.421875 -17.25 1.4375 -16.890625 7.78125 -24.078125 C 9.578125 -26.109375 9.21875 -25.515625 12.09375 -26.234375 C 12.8125 -29.234375 11.734375 -30.421875 10.0625 -30.421875 C 6.59375 -30.421875 0.359375 -25.515625 0.359375 -19.40625 Z M 0.359375 -19.40625 "/></g></g></g><g fill="#fffef9" fill-opacity="1"><g transform="translate(222.989094, 189.376706)"><g><path d="M 5.515625 -21.6875 C 6.34375 -24.671875 10.296875 -29.34375 13.53125 -29.953125 C 13.171875 -26.109375 8.5 -23.234375 5.515625 -21.6875 Z M 0.125 -18.8125 C 0.125 -15.453125 0 -12.453125 2.875 -9.578125 C 4.90625 -7.546875 7.3125 -6.703125 9.828125 -6.703125 C 17.125 -6.703125 25.390625 -14.015625 29.828125 -18.453125 C 30.90625 -19.765625 30.90625 -19.890625 30.546875 -21.6875 C 26.953125 -21.6875 28.875 -21.203125 23.953125 -17.375 C 23.125 -16.765625 22.765625 -16.296875 21.796875 -15.578125 C 19.40625 -13.78125 14.375 -10.296875 10.1875 -10.296875 C 8.75 -10.296875 7.3125 -10.78125 6.234375 -11.859375 C 4.1875 -13.890625 4.4375 -15.8125 4.4375 -18.328125 C 8.140625 -18.5625 12.453125 -22.046875 14.375 -24.203125 C 18.09375 -28.875 18.09375 -33.65625 12.8125 -33.65625 C 7.0625 -33.65625 0.125 -24.796875 0.125 -18.8125 Z M 0.125 -18.8125 "/></g></g></g><g fill="#fffef9" fill-opacity="1"><g transform="translate(248.980247, 189.376706)"><g><path d="M 3.46875 48.03125 C 1.5625 48.03125 -0.359375 47.3125 -1.3125 46.109375 C -6.109375 40.96875 -1.3125 31.265625 1.5625 27.1875 C 4.546875 22.640625 7.421875 18.921875 11.265625 15.09375 C 12.21875 14.25 12.703125 13.296875 13.421875 12.703125 L 25.15625 2.28125 C 26.109375 1.5625 26.828125 1.078125 27.796875 0.484375 C 27.1875 7.90625 21.6875 29.109375 18.09375 35.6875 C 15.21875 40.84375 10.296875 48.03125 3.46875 48.03125 Z M 6.234375 -10.546875 C 6.234375 -22.046875 13.296875 -30.0625 8.03125 -30.0625 C 4.078125 -30.0625 1.203125 -18.09375 1.203125 -12.9375 C 1.203125 -8.75 3.109375 -6.109375 5.75 -6.109375 C 7.0625 -6.109375 8.5 -6.828125 9.9375 -8.140625 C 13.171875 -11.140625 16.890625 -17.25 19.28125 -21.078125 C 21.203125 -23.84375 30.1875 -39.53125 31.265625 -40.25 C 31.265625 -26.46875 30.1875 -18.328125 28.75 -6.109375 C 28.625 -3.953125 27.546875 -3.953125 25.390625 -2.03125 C 24.4375 -1.3125 23.953125 -1.078125 23.125 -0.359375 C 12.703125 7.0625 -6.703125 26.953125 -6.703125 40.125 C -6.703125 47.3125 -2.15625 51.5 3.71875 51.5 C 11.625 51.5 18.453125 44.3125 21.921875 37.734375 C 27.796875 28.15625 31.734375 9.9375 33.421875 -1.921875 C 33.65625 -3.59375 33.421875 -3.828125 34.609375 -4.671875 C 39.28125 -7.90625 44.203125 -11.015625 49.109375 -13.78125 C 50.546875 -14.609375 58.21875 -18.5625 58.21875 -20.359375 C 58.21875 -21.328125 57.734375 -21.6875 57.140625 -21.6875 C 55.34375 -21.6875 52.109375 -19.171875 51.390625 -18.6875 L 34.25 -8.75 C 34.25 -12.09375 35.328125 -19.890625 35.328125 -25.875 L 35.328125 -35.09375 C 35.328125 -37.484375 35.453125 -46.359375 32.9375 -46.359375 C 30.421875 -46.359375 30.421875 -45.515625 28.515625 -42.40625 C 24.3125 -35.328125 12.34375 -13.65625 6.234375 -10.546875 Z M 6.234375 -10.546875 "/></g></g></g></svg>